<?xml version="1.0" encoding="UTF-8"?>
<svg xmlns="http://www.w3.org/2000/svg" xmlns:xlink="http://www.w3.org/1999/xlink" width="40pt" height="40pt" viewBox="0 0 40 40" version="1.1">
<g id="surface1">
<path style=" stroke:none;fill-rule:nonzero;fill:rgb(255%,255%,255%);fill-opacity:1;" d="M 19.558594 15.480469 C 19.210938 15.386719 18.871094 15.300781 18.539062 15.230469 C 18.285156 15.171875 18.035156 15.332031 17.980469 15.585938 C 17.925781 15.839844 18.085938 16.089844 18.339844 16.144531 C 18.652344 16.214844 18.980469 16.292969 19.308594 16.386719 C 19.472656 16.433594 19.648438 16.386719 19.765625 16.269531 C 19.886719 16.152344 19.9375 15.976562 19.894531 15.816406 C 19.847656 15.652344 19.722656 15.523438 19.558594 15.480469 Z M 19.558594 15.480469 "/>
<path style=" stroke:none;fill-rule:nonzero;fill:rgb(255%,255%,255%);fill-opacity:1;" d="M 21.023438 15.945312 C 20.863281 15.886719 20.683594 15.917969 20.554688 16.023438 C 20.425781 16.132812 20.367188 16.304688 20.394531 16.46875 C 20.425781 16.636719 20.546875 16.773438 20.703125 16.828125 C 24.082031 18.039062 27.066406 20.15625 29.324219 22.941406 C 29.488281 23.144531 29.78125 23.175781 29.984375 23.011719 C 30.183594 22.847656 30.214844 22.554688 30.050781 22.351562 C 27.683594 19.429688 24.5625 17.214844 21.023438 15.945312 Z M 21.023438 15.945312 "/>
<path style=" stroke:none;fill-rule:nonzero;fill:rgb(255%,255%,255%);fill-opacity:1;" d="M 7.414062 32.585938 C 12.367188 37.535156 19.757812 39.125 26.308594 36.648438 C 31.960938 34.507812 36.136719 29.648438 37.40625 23.738281 C 38.675781 17.832031 36.859375 11.683594 32.585938 7.414062 C 32.417969 7.242188 32.242188 7.074219 32.0625 6.90625 C 25.039062 0.4375 14.164062 0.660156 7.414062 7.414062 C 7.0625 7.761719 6.726562 8.125 6.414062 8.5 C 4.742188 10.460938 3.523438 12.765625 2.839844 15.25 C 1.128906 21.429688 2.875 28.054688 7.414062 32.585938 Z M 31.925781 31.925781 C 30.285156 33.570312 28.320312 34.855469 26.15625 35.703125 C 19.847656 32.792969 15.21875 27.027344 13.765625 20.246094 C 13.710938 19.996094 13.460938 19.832031 13.207031 19.886719 C 12.953125 19.941406 12.792969 20.191406 12.847656 20.445312 C 14.296875 27.203125 18.769531 32.992188 24.910156 36.136719 C 20.15625 37.574219 15.015625 36.855469 10.839844 34.164062 C 7.242188 27.75 7.851562 19.800781 12.386719 14.011719 C 12.351562 14.53125 12.332031 15.054688 12.332031 15.574219 C 12.332031 16.617188 12.402344 17.65625 12.542969 18.691406 C 12.578125 18.945312 12.8125 19.121094 13.066406 19.085938 C 13.324219 19.050781 13.503906 18.820312 13.472656 18.566406 C 13.226562 16.753906 13.207031 14.921875 13.40625 13.109375 C 13.644531 13.101562 13.878906 13.097656 14.105469 13.097656 C 23.460938 13.101562 31.804688 18.976562 34.964844 27.78125 C 34.167969 29.308594 33.144531 30.707031 31.925781 31.925781 Z M 16.902344 3.421875 C 21.460938 2.566406 26.175781 3.632812 29.925781 6.367188 C 28.867188 6.1875 27.792969 6.097656 26.714844 6.097656 C 26.464844 6.097656 26.210938 6.101562 25.957031 6.113281 C 25.699219 6.125 25.5 6.339844 25.507812 6.601562 C 25.519531 6.859375 25.734375 7.058594 25.996094 7.050781 C 26.234375 7.039062 26.476562 7.035156 26.714844 7.035156 C 28.335938 7.035156 29.945312 7.25 31.507812 7.671875 C 31.648438 7.808594 31.789062 7.941406 31.925781 8.074219 C 36.789062 12.941406 38.214844 20.273438 35.519531 26.605469 C 31.992188 17.878906 23.519531 12.164062 14.105469 12.160156 C 14.089844 12.160156 14.074219 12.160156 14.058594 12.160156 C 16.832031 9.476562 20.382812 7.742188 24.203125 7.207031 C 24.457031 7.171875 24.636719 6.933594 24.601562 6.679688 C 24.566406 6.425781 24.332031 6.246094 24.074219 6.28125 C 20.195312 6.820312 16.578125 8.539062 13.703125 11.203125 C 14.265625 8.429688 15.347656 5.789062 16.902344 3.421875 Z M 8.074219 8.074219 C 10.160156 5.984375 12.757812 4.480469 15.609375 3.714844 C 14.136719 6.175781 13.136719 8.890625 12.65625 11.714844 C 11.097656 10.46875 9.378906 9.429688 7.550781 8.625 C 7.722656 8.4375 7.894531 8.253906 8.074219 8.074219 Z M 6.910156 9.367188 C 8.671875 10.117188 10.332031 11.09375 11.84375 12.269531 C 9.144531 12.527344 6.511719 13.261719 4.074219 14.445312 C 4.714844 12.597656 5.671875 10.878906 6.910156 9.367188 Z M 3.695312 15.691406 C 6.21875 14.339844 8.980469 13.5 11.824219 13.214844 C 7.332031 18.777344 6.3125 26.386719 9.183594 32.9375 C 8.800781 32.617188 8.429688 32.277344 8.074219 31.925781 C 3.828125 27.679688 2.15625 21.496094 3.695312 15.691406 Z M 3.695312 15.691406 "/>
</g>
</svg>
