<?xml version="1.0"?>
<svg xmlns="http://www.w3.org/2000/svg" id="Layer_1" data-name="Layer 1" viewBox="0 0 512 512" width="512" height="512"><path d="M250.354,198.166c-4.436-1.223-8.826-2.312-13.05-3.237a6,6,0,0,0-2.568,11.722c4.016.88,8.2,1.917,12.43,3.083a6,6,0,1,0,3.188-11.568Z"/><path d="M269.076,204.1a6,6,0,1,0-4.052,11.294,251.082,251.082,0,0,1,110.324,78.28,6,6,0,0,0,9.324-7.554A263.071,263.071,0,0,0,269.076,204.1Z"/><path d="M94.877,417.123a228.2,228.2,0,0,0,241.885,52A227.888,227.888,0,0,0,417.123,94.877c-2.156-2.155-4.421-4.331-6.735-6.467a227.825,227.825,0,0,0-315.51,6.467c-4.461,4.46-8.769,9.138-12.8,13.9a225.064,225.064,0,0,0-45.71,86.407A227.791,227.791,0,0,0,94.877,417.123Zm313.76-8.486a214.1,214.1,0,0,1-73.815,48.354c-80.784-37.251-140-111.017-158.635-197.819a6,6,0,1,0-11.733,2.519c18.57,86.506,75.8,160.589,154.379,200.862a216.462,216.462,0,0,1-180.059-25.248,233.153,233.153,0,0,1,19.77-257.945c-.444,6.644-.674,13.33-.674,20.01a299.245,299.245,0,0,0,2.667,39.867,6,6,0,0,0,11.892-1.6,287.01,287.01,0,0,1-.812-69.86c3.025-.092,6.014-.143,8.923-.143A283.805,283.805,0,0,1,447.56,355.605,215.718,215.718,0,0,1,408.637,408.637ZM216.328,43.82A215.421,215.421,0,0,1,383.056,81.5,246.986,246.986,0,0,0,341.97,78.06c-3.224,0-6.486.064-9.7.188a6,6,0,0,0,.466,11.991c3.056-.119,6.161-.179,9.23-.179A233.653,233.653,0,0,1,403.3,98.221c1.825,1.707,3.621,3.429,5.333,5.142a215.963,215.963,0,0,1,46.034,237.2A295.842,295.842,0,0,0,180.54,155.63c-.2,0-.4,0-.6,0A233.186,233.186,0,0,1,309.8,92.262a6,6,0,0,0-1.641-11.887,245.181,245.181,0,0,0-132.739,63.018A284.176,284.176,0,0,1,216.328,43.82ZM103.363,103.363A214.815,214.815,0,0,1,199.81,47.556,296.38,296.38,0,0,0,162,149.962a294.373,294.373,0,0,0-65.346-39.573C98.836,108,101.075,105.65,103.363,103.363ZM88.445,119.907a282.252,282.252,0,0,1,63.165,37.149A291.345,291.345,0,0,0,52.141,184.9,212.729,212.729,0,0,1,88.445,119.907ZM47.3,200.844a279.675,279.675,0,0,1,104.062-31.712A245.169,245.169,0,0,0,117.543,421.6c-4.907-4.112-9.649-8.43-14.18-12.961A215.675,215.675,0,0,1,47.3,200.844Z"/></svg>
