<?xml version="1.0" encoding="UTF-8"?>
<svg xmlns="http://www.w3.org/2000/svg" xmlns:xlink="http://www.w3.org/1999/xlink" width="40pt" height="40pt" viewBox="0 0 40 40" version="1.1">
<g id="surface1">
<path style=" stroke:none;fill-rule:nonzero;fill:rgb(255%,255%,255%);fill-opacity:1;" d="M 30.515625 37.132812 C 32.445312 37.132812 34.273438 36.394531 35.664062 35.058594 C 36.035156 34.707031 36.242188 34.230469 36.253906 33.71875 C 36.261719 33.207031 36.074219 32.722656 35.71875 32.355469 C 35.367188 31.988281 34.890625 31.777344 34.378906 31.769531 C 33.871094 31.757812 33.386719 31.945312 33.015625 32.300781 C 32.339844 32.949219 31.453125 33.308594 30.515625 33.308594 C 28.523438 33.308594 26.90625 31.6875 26.90625 29.695312 C 26.90625 27.703125 28.523438 26.082031 30.515625 26.082031 C 31.453125 26.082031 32.339844 26.441406 33.015625 27.089844 C 33.386719 27.445312 33.871094 27.632812 34.378906 27.625 C 34.890625 27.613281 35.367188 27.40625 35.71875 27.035156 C 36.074219 26.667969 36.261719 26.183594 36.253906 25.671875 C 36.242188 25.164062 36.035156 24.6875 35.664062 24.332031 C 34.273438 22.996094 32.445312 22.257812 30.515625 22.257812 C 29.019531 22.257812 27.574219 22.703125 26.339844 23.546875 C 26.046875 23.746094 25.972656 24.140625 26.171875 24.433594 C 26.371094 24.722656 26.765625 24.800781 27.058594 24.601562 C 28.082031 23.902344 29.277344 23.535156 30.515625 23.535156 C 32.113281 23.535156 33.628906 24.144531 34.78125 25.253906 C 34.90625 25.371094 34.976562 25.527344 34.976562 25.699219 C 34.980469 25.867188 34.917969 26.03125 34.800781 26.152344 C 34.683594 26.277344 34.523438 26.34375 34.355469 26.347656 C 34.1875 26.351562 34.023438 26.289062 33.898438 26.171875 C 32.984375 25.292969 31.78125 24.808594 30.515625 24.808594 C 27.820312 24.808594 25.628906 27 25.628906 29.695312 C 25.628906 32.390625 27.820312 34.582031 30.515625 34.582031 C 31.78125 34.582031 32.984375 34.097656 33.898438 33.21875 C 34.023438 33.101562 34.179688 33.039062 34.355469 33.042969 C 34.523438 33.046875 34.683594 33.117188 34.800781 33.238281 C 34.917969 33.359375 34.980469 33.523438 34.976562 33.691406 C 34.976562 33.863281 34.90625 34.023438 34.78125 34.140625 C 33.628906 35.246094 32.113281 35.855469 30.515625 35.855469 C 27.121094 35.855469 24.355469 33.09375 24.355469 29.695312 C 24.355469 28.457031 24.722656 27.257812 25.421875 26.234375 C 25.621094 25.945312 25.546875 25.546875 25.253906 25.351562 C 24.964844 25.152344 24.566406 25.226562 24.367188 25.519531 C 23.527344 26.753906 23.082031 28.199219 23.082031 29.695312 C 23.082031 33.796875 26.417969 37.132812 30.515625 37.132812 Z M 30.515625 37.132812 "/>
<path style=" stroke:none;fill-rule:nonzero;fill:rgb(255%,255%,255%);fill-opacity:1;" d="M 22.464844 16.515625 C 22.648438 16.992188 23.007812 17.367188 23.472656 17.574219 C 23.722656 17.6875 23.984375 17.742188 24.25 17.742188 C 24.480469 17.742188 24.710938 17.699219 24.9375 17.613281 C 25.917969 17.234375 26.414062 16.125 26.035156 15.140625 L 21.785156 4.09375 C 21.503906 3.359375 20.785156 2.867188 20 2.867188 C 19.214844 2.867188 18.496094 3.359375 18.214844 4.09375 L 17.617188 5.644531 C 17.492188 5.972656 17.65625 6.34375 17.984375 6.46875 C 18.3125 6.597656 18.683594 6.433594 18.808594 6.101562 L 19.40625 4.550781 C 19.5 4.308594 19.738281 4.144531 20 4.144531 C 20.261719 4.144531 20.5 4.308594 20.59375 4.550781 L 24.84375 15.597656 C 24.96875 15.925781 24.804688 16.296875 24.476562 16.421875 C 24.320312 16.484375 24.144531 16.480469 23.992188 16.410156 C 23.835938 16.339844 23.714844 16.214844 23.65625 16.058594 L 21.847656 11.355469 C 21.75 11.109375 21.515625 10.945312 21.25 10.945312 L 18.75 10.945312 C 18.484375 10.945312 18.25 11.105469 18.15625 11.351562 L 16.34375 16.058594 C 16.25 16.300781 16.011719 16.464844 15.75 16.464844 C 15.671875 16.464844 15.597656 16.453125 15.523438 16.421875 C 15.363281 16.363281 15.238281 16.242188 15.167969 16.085938 C 15.097656 15.929688 15.09375 15.757812 15.15625 15.597656 L 17.894531 8.484375 C 18.019531 8.152344 17.855469 7.785156 17.527344 7.660156 C 17.199219 7.53125 16.828125 7.695312 16.703125 8.023438 L 13.964844 15.140625 C 13.78125 15.617188 13.796875 16.136719 14.003906 16.605469 C 14.210938 17.070312 14.585938 17.429688 15.0625 17.613281 C 15.285156 17.699219 15.515625 17.742188 15.75 17.742188 C 16.535156 17.742188 17.253906 17.25 17.535156 16.515625 L 19.1875 12.21875 L 20.8125 12.222656 Z M 22.464844 16.515625 "/>
<path style=" stroke:none;fill-rule:nonzero;fill:rgb(255%,255%,255%);fill-opacity:1;" d="M 19.730469 9.671875 C 19.730469 9.671875 20.269531 9.671875 20.269531 9.671875 C 20.480469 9.671875 20.675781 9.566406 20.796875 9.394531 C 20.914062 9.222656 20.941406 9 20.863281 8.804688 L 20.59375 8.101562 C 20.5 7.855469 20.265625 7.695312 20 7.695312 C 19.734375 7.695312 19.5 7.855469 19.40625 8.101562 L 19.136719 8.804688 C 19.058594 9 19.085938 9.222656 19.203125 9.394531 C 19.324219 9.566406 19.519531 9.671875 19.730469 9.671875 Z M 19.730469 9.671875 "/>
<path style=" stroke:none;fill-rule:nonzero;fill:rgb(255%,255%,255%);fill-opacity:1;" d="M 16.070312 26.933594 C 16.070312 24.355469 14.035156 22.257812 11.535156 22.257812 L 6.507812 22.257812 C 5.453125 22.257812 4.597656 23.117188 4.597656 24.171875 C 4.597656 24.523438 4.882812 24.808594 5.234375 24.808594 C 5.585938 24.808594 5.871094 24.523438 5.871094 24.171875 C 5.871094 23.820312 6.15625 23.535156 6.507812 23.535156 L 11.535156 23.535156 C 13.332031 23.535156 14.792969 25.058594 14.792969 26.933594 C 14.792969 27.804688 14.476562 28.632812 13.902344 29.265625 C 13.679688 29.511719 13.679688 29.882812 13.902344 30.125 C 14.476562 30.757812 14.792969 31.585938 14.792969 32.457031 C 14.792969 34.332031 13.332031 35.855469 11.535156 35.855469 L 6.507812 35.855469 C 6.15625 35.855469 5.871094 35.570312 5.871094 35.21875 L 5.871094 26.722656 C 5.871094 26.367188 5.585938 26.082031 5.234375 26.082031 C 4.882812 26.082031 4.597656 26.367188 4.597656 26.722656 L 4.597656 35.21875 C 4.597656 36.273438 5.453125 37.132812 6.507812 37.132812 L 11.535156 37.132812 C 14.035156 37.132812 16.070312 35.035156 16.070312 32.457031 C 16.070312 31.457031 15.761719 30.496094 15.191406 29.695312 C 15.761719 28.898438 16.070312 27.933594 16.070312 26.933594 Z M 16.070312 26.933594 "/>
<path style=" stroke:none;fill-rule:nonzero;fill:rgb(255%,255%,255%);fill-opacity:1;" d="M 7.785156 29.058594 L 11.433594 29.058594 C 11.453125 29.058594 11.46875 29.058594 11.484375 29.058594 C 11.5 29.058594 11.515625 29.054688 11.535156 29.054688 C 12.628906 29.054688 13.519531 28.105469 13.519531 26.933594 C 13.519531 25.761719 12.628906 24.808594 11.535156 24.808594 L 7.785156 24.808594 C 7.429688 24.808594 7.144531 25.09375 7.144531 25.445312 L 7.144531 28.421875 C 7.144531 28.773438 7.429688 29.058594 7.785156 29.058594 Z M 8.421875 26.082031 L 11.535156 26.082031 C 11.925781 26.082031 12.246094 26.464844 12.246094 26.933594 C 12.246094 27.402344 11.925781 27.78125 11.535156 27.78125 C 11.492188 27.78125 11.453125 27.78125 11.414062 27.785156 L 8.421875 27.785156 Z M 8.421875 26.082031 "/>
<path style=" stroke:none;fill-rule:nonzero;fill:rgb(255%,255%,255%);fill-opacity:1;" d="M 7.144531 33.945312 C 7.144531 34.296875 7.429688 34.582031 7.785156 34.582031 L 11.535156 34.582031 C 12.628906 34.582031 13.519531 33.628906 13.519531 32.457031 C 13.519531 31.289062 12.628906 30.335938 11.535156 30.335938 L 7.785156 30.335938 C 7.429688 30.335938 7.144531 30.621094 7.144531 30.972656 Z M 8.421875 31.609375 L 11.535156 31.609375 C 11.925781 31.609375 12.246094 31.992188 12.246094 32.457031 C 12.246094 32.925781 11.925781 33.308594 11.535156 33.308594 L 8.421875 33.308594 Z M 8.421875 31.609375 "/>
<path style=" stroke:none;fill-rule:nonzero;fill:rgb(255%,255%,255%);fill-opacity:1;" d="M 39.335938 19.390625 L 30.304688 19.390625 L 30.304688 0.636719 C 30.304688 0.285156 30.019531 0 29.667969 0 L 10.332031 0 C 9.980469 0 9.695312 0.285156 9.695312 0.636719 L 9.695312 19.390625 L 0.664062 19.390625 C 0.3125 19.390625 0.0273438 19.675781 0.0273438 20.027344 L 0.0273438 39.363281 C 0.0273438 39.714844 0.3125 40 0.664062 40 L 39.335938 40 C 39.6875 40 39.972656 39.714844 39.972656 39.363281 L 39.972656 20.027344 C 39.972656 19.675781 39.6875 19.390625 39.335938 19.390625 Z M 10.96875 1.273438 L 29.03125 1.273438 L 29.03125 19.390625 L 10.96875 19.390625 Z M 1.304688 20.664062 L 19.363281 20.664062 L 19.363281 38.726562 L 1.304688 38.726562 Z M 38.695312 38.726562 L 20.636719 38.726562 L 20.636719 20.664062 L 38.695312 20.664062 Z M 38.695312 38.726562 "/>
</g>
</svg>
