<?xml version="1.0" encoding="UTF-8"?>
<svg xmlns="http://www.w3.org/2000/svg" xmlns:xlink="http://www.w3.org/1999/xlink" width="40pt" height="40pt" viewBox="0 0 30 30" version="1.1">
<g id="surface1">
<path style=" stroke:none;fill-rule:nonzero;fill:rgb(255%,255%,255%);fill-opacity:1;" d="M 10.269531 14.046875 C 9.265625 14.046875 8.449219 14.863281 8.449219 15.867188 C 8.449219 16.867188 9.265625 17.683594 10.269531 17.683594 C 11.273438 17.683594 12.089844 16.867188 12.089844 15.867188 C 12.089844 14.863281 11.273438 14.046875 10.269531 14.046875 Z M 10.269531 16.804688 C 9.753906 16.804688 9.332031 16.382812 9.332031 15.867188 C 9.332031 15.347656 9.753906 14.925781 10.269531 14.925781 C 10.789062 14.925781 11.210938 15.347656 11.210938 15.867188 C 11.210938 16.382812 10.789062 16.804688 10.269531 16.804688 Z M 10.269531 16.804688 "/>
<path style=" stroke:none;fill-rule:nonzero;fill:rgb(255%,255%,255%);fill-opacity:1;" d="M 17.910156 15.867188 C 17.910156 16.867188 18.726562 17.683594 19.730469 17.683594 C 20.734375 17.683594 21.550781 16.867188 21.550781 15.867188 C 21.550781 14.863281 20.734375 14.046875 19.730469 14.046875 C 18.726562 14.046875 17.910156 14.863281 17.910156 15.867188 Z M 19.730469 14.925781 C 20.246094 14.925781 20.667969 15.347656 20.667969 15.867188 C 20.667969 16.382812 20.246094 16.804688 19.730469 16.804688 C 19.210938 16.804688 18.789062 16.382812 18.789062 15.867188 C 18.789062 15.347656 19.210938 14.925781 19.730469 14.925781 Z M 19.730469 14.925781 "/>
<path style=" stroke:none;fill-rule:nonzero;fill:rgb(255%,255%,255%);fill-opacity:1;" d="M 29.949219 22.058594 L 27.964844 10.238281 C 27.964844 10.230469 27.960938 10.222656 27.960938 10.214844 C 27.679688 8.253906 26.363281 6.652344 24.613281 5.933594 L 24.613281 5.117188 C 24.613281 4.386719 24.019531 3.792969 23.292969 3.792969 L 21.632812 3.792969 C 20.902344 3.792969 20.308594 4.386719 20.308594 5.117188 L 20.308594 6 C 19.722656 6.261719 19.183594 6.628906 18.714844 7.09375 L 11.285156 7.09375 C 10.816406 6.628906 10.277344 6.261719 9.691406 6 L 9.691406 5.117188 C 9.691406 4.386719 9.097656 3.792969 8.367188 3.792969 L 6.707031 3.792969 C 5.980469 3.792969 5.386719 4.386719 5.386719 5.117188 L 5.386719 5.933594 C 3.636719 6.652344 2.320312 8.253906 2.039062 10.214844 C 2.039062 10.222656 2.035156 10.230469 2.035156 10.238281 L 1.394531 14.046875 C 1.355469 14.285156 1.515625 14.511719 1.757812 14.550781 C 1.996094 14.59375 2.222656 14.429688 2.265625 14.191406 L 2.898438 10.421875 C 2.902344 10.40625 2.90625 10.386719 2.90625 10.371094 C 3.214844 8.109375 5.167969 6.402344 7.453125 6.402344 C 8.667969 6.402344 9.800781 6.871094 10.660156 7.714844 L 10.660156 8.316406 C 10.660156 9.207031 11.386719 9.933594 12.277344 9.933594 L 14.121094 9.933594 C 14.363281 9.933594 14.558594 9.734375 14.558594 9.492188 C 14.558594 9.25 14.363281 9.050781 14.121094 9.050781 L 12.277344 9.050781 C 11.871094 9.050781 11.542969 8.722656 11.542969 8.316406 L 11.542969 7.976562 L 18.457031 7.976562 L 18.457031 8.316406 C 18.457031 8.722656 18.128906 9.050781 17.722656 9.050781 L 15.878906 9.050781 C 15.636719 9.050781 15.441406 9.25 15.441406 9.492188 C 15.441406 9.734375 15.636719 9.933594 15.878906 9.933594 L 17.722656 9.933594 C 18.613281 9.933594 19.339844 9.207031 19.339844 8.316406 L 19.339844 7.714844 C 20.199219 6.871094 21.332031 6.402344 22.546875 6.402344 C 24.832031 6.402344 26.785156 8.109375 27.09375 10.371094 C 27.09375 10.386719 27.097656 10.402344 27.101562 10.417969 L 29.082031 22.203125 C 29.289062 23.441406 28.625 24.640625 27.46875 25.121094 C 26.773438 25.410156 26.015625 25.394531 25.332031 25.085938 C 24.648438 24.773438 24.140625 24.210938 23.902344 23.5 L 23.496094 22.292969 C 23.417969 22.0625 23.167969 21.9375 22.9375 22.015625 C 22.707031 22.09375 22.585938 22.34375 22.664062 22.574219 L 23.066406 23.78125 C 23.378906 24.710938 24.074219 25.480469 24.96875 25.886719 C 25.433594 26.097656 25.9375 26.207031 26.441406 26.207031 C 26.90625 26.207031 27.371094 26.113281 27.804688 25.933594 C 29.34375 25.296875 30.226562 23.703125 29.949219 22.058594 Z M 6.269531 5.65625 L 6.269531 5.117188 C 6.269531 4.871094 6.464844 4.675781 6.707031 4.675781 L 8.367188 4.675781 C 8.613281 4.675781 8.808594 4.871094 8.808594 5.117188 L 8.808594 5.691406 C 8.371094 5.582031 7.917969 5.523438 7.453125 5.523438 C 7.046875 5.523438 6.652344 5.570312 6.269531 5.65625 Z M 21.191406 5.691406 L 21.191406 5.117188 C 21.191406 4.871094 21.386719 4.675781 21.632812 4.675781 L 23.292969 4.675781 C 23.535156 4.675781 23.730469 4.871094 23.730469 5.117188 L 23.730469 5.65625 C 23.347656 5.570312 22.953125 5.523438 22.546875 5.523438 C 22.082031 5.523438 21.628906 5.582031 21.191406 5.691406 Z M 21.191406 5.691406 "/>
<path style=" stroke:none;fill-rule:nonzero;fill:rgb(255%,255%,255%);fill-opacity:1;" d="M 22.9375 20.625 L 22.152344 18.292969 C 22.109375 18.160156 22.003906 18.054688 21.871094 18.015625 C 21.734375 17.972656 21.589844 17.996094 21.476562 18.078125 C 21 18.425781 20.433594 18.609375 19.839844 18.609375 C 19.078125 18.609375 18.367188 18.308594 17.835938 17.757812 C 17.753906 17.667969 17.636719 17.621094 17.519531 17.621094 L 12.480469 17.621094 C 12.363281 17.621094 12.246094 17.667969 12.164062 17.757812 C 11.632812 18.308594 10.921875 18.609375 10.160156 18.609375 C 9.566406 18.609375 9 18.425781 8.523438 18.078125 C 8.410156 17.996094 8.265625 17.972656 8.128906 18.015625 C 7.996094 18.054688 7.890625 18.160156 7.847656 18.292969 L 6.097656 23.5 C 5.859375 24.210938 5.351562 24.773438 4.667969 25.085938 C 3.984375 25.394531 3.226562 25.410156 2.53125 25.121094 C 1.375 24.640625 0.710938 23.441406 0.917969 22.203125 L 1.972656 15.929688 C 2.011719 15.6875 1.851562 15.460938 1.609375 15.421875 C 1.371094 15.382812 1.144531 15.542969 1.105469 15.785156 L 0.0507812 22.058594 C -0.226562 23.703125 0.65625 25.296875 2.195312 25.933594 C 2.628906 26.113281 3.09375 26.207031 3.558594 26.207031 C 4.0625 26.207031 4.566406 26.097656 5.03125 25.886719 C 5.925781 25.480469 6.621094 24.710938 6.933594 23.78125 L 8.503906 19.097656 C 9.015625 19.355469 9.578125 19.492188 10.160156 19.492188 C 11.101562 19.492188 11.980469 19.140625 12.664062 18.5 L 17.339844 18.5 C 18.019531 19.140625 18.898438 19.492188 19.839844 19.492188 C 20.421875 19.492188 20.984375 19.355469 21.496094 19.097656 L 22.101562 20.902344 C 22.179688 21.132812 22.429688 21.257812 22.660156 21.179688 C 22.890625 21.101562 23.011719 20.855469 22.9375 20.625 Z M 22.9375 20.625 "/>
<path style=" stroke:none;fill-rule:nonzero;fill:rgb(255%,255%,255%);fill-opacity:1;" d="M 7.488281 8.261719 C 6.730469 8.261719 6.113281 8.875 6.113281 9.632812 L 6.113281 9.734375 L 6.015625 9.734375 C 5.257812 9.734375 4.640625 10.351562 4.640625 11.109375 C 4.640625 11.867188 5.257812 12.484375 6.015625 12.484375 L 6.113281 12.484375 L 6.113281 12.582031 C 6.113281 13.339844 6.730469 13.957031 7.488281 13.957031 C 8.246094 13.957031 8.863281 13.339844 8.863281 12.582031 L 8.863281 12.484375 L 8.960938 12.484375 C 9.71875 12.484375 10.335938 11.867188 10.335938 11.109375 C 10.335938 10.351562 9.71875 9.734375 8.960938 9.734375 L 8.863281 9.734375 L 8.863281 9.632812 C 8.863281 8.875 8.246094 8.261719 7.488281 8.261719 Z M 8.960938 10.613281 C 9.234375 10.613281 9.457031 10.835938 9.457031 11.109375 C 9.457031 11.378906 9.234375 11.601562 8.960938 11.601562 L 8.421875 11.601562 C 8.179688 11.601562 7.980469 11.800781 7.980469 12.042969 L 7.980469 12.582031 C 7.980469 12.855469 7.761719 13.078125 7.488281 13.078125 C 7.214844 13.078125 6.996094 12.855469 6.996094 12.582031 L 6.996094 12.042969 C 6.996094 11.800781 6.796875 11.601562 6.554688 11.601562 L 6.015625 11.601562 C 5.742188 11.601562 5.519531 11.378906 5.519531 11.109375 C 5.519531 10.835938 5.742188 10.613281 6.015625 10.613281 L 6.554688 10.613281 C 6.796875 10.613281 6.996094 10.417969 6.996094 10.175781 L 6.996094 9.632812 C 6.996094 9.363281 7.214844 9.140625 7.488281 9.140625 C 7.761719 9.140625 7.980469 9.363281 7.980469 9.632812 L 7.980469 10.175781 C 7.980469 10.417969 8.179688 10.613281 8.421875 10.613281 Z M 8.960938 10.613281 "/>
<path style=" stroke:none;fill-rule:nonzero;fill:rgb(255%,255%,255%);fill-opacity:1;" d="M 22.8125 7.660156 C 22.105469 7.660156 21.527344 8.234375 21.527344 8.945312 C 21.527344 9.652344 22.105469 10.230469 22.8125 10.230469 C 23.523438 10.230469 24.097656 9.652344 24.097656 8.945312 C 24.097656 8.234375 23.523438 7.660156 22.8125 7.660156 Z M 22.8125 9.347656 C 22.589844 9.347656 22.40625 9.167969 22.40625 8.945312 C 22.40625 8.722656 22.589844 8.539062 22.8125 8.539062 C 23.035156 8.539062 23.21875 8.722656 23.21875 8.945312 C 23.21875 9.167969 23.035156 9.347656 22.8125 9.347656 Z M 22.8125 9.347656 "/>
<path style=" stroke:none;fill-rule:nonzero;fill:rgb(255%,255%,255%);fill-opacity:1;" d="M 22.8125 11.988281 C 22.105469 11.988281 21.527344 12.5625 21.527344 13.273438 C 21.527344 13.980469 22.105469 14.558594 22.8125 14.558594 C 23.523438 14.558594 24.097656 13.980469 24.097656 13.273438 C 24.097656 12.5625 23.523438 11.988281 22.8125 11.988281 Z M 22.8125 13.675781 C 22.589844 13.675781 22.40625 13.496094 22.40625 13.273438 C 22.40625 13.050781 22.589844 12.867188 22.8125 12.867188 C 23.035156 12.867188 23.21875 13.050781 23.21875 13.273438 C 23.21875 13.496094 23.035156 13.675781 22.8125 13.675781 Z M 22.8125 13.675781 "/>
<path style=" stroke:none;fill-rule:nonzero;fill:rgb(255%,255%,255%);fill-opacity:1;" d="M 26.261719 11.109375 C 26.261719 10.398438 25.6875 9.824219 24.976562 9.824219 C 24.269531 9.824219 23.691406 10.398438 23.691406 11.109375 C 23.691406 11.816406 24.269531 12.394531 24.976562 12.394531 C 25.6875 12.394531 26.261719 11.816406 26.261719 11.109375 Z M 24.570312 11.109375 C 24.570312 10.886719 24.753906 10.703125 24.976562 10.703125 C 25.199219 10.703125 25.382812 10.886719 25.382812 11.109375 C 25.382812 11.332031 25.199219 11.511719 24.976562 11.511719 C 24.753906 11.511719 24.570312 11.332031 24.570312 11.109375 Z M 24.570312 11.109375 "/>
<path style=" stroke:none;fill-rule:nonzero;fill:rgb(255%,255%,255%);fill-opacity:1;" d="M 19.363281 11.109375 C 19.363281 11.816406 19.941406 12.394531 20.648438 12.394531 C 21.359375 12.394531 21.933594 11.816406 21.933594 11.109375 C 21.933594 10.398438 21.359375 9.824219 20.648438 9.824219 C 19.941406 9.824219 19.363281 10.398438 19.363281 11.109375 Z M 21.054688 11.109375 C 21.054688 11.332031 20.871094 11.511719 20.648438 11.511719 C 20.425781 11.511719 20.242188 11.332031 20.242188 11.109375 C 20.242188 10.886719 20.425781 10.703125 20.648438 10.703125 C 20.871094 10.703125 21.054688 10.886719 21.054688 11.109375 Z M 21.054688 11.109375 "/>
<path style=" stroke:none;fill-rule:nonzero;fill:rgb(255%,255%,255%);fill-opacity:1;" d="M 13.699219 12.8125 C 13.941406 12.8125 14.140625 12.617188 14.140625 12.375 C 14.140625 12.128906 13.941406 11.933594 13.699219 11.933594 L 12.382812 11.933594 C 12.140625 11.933594 11.941406 12.128906 11.941406 12.375 C 11.941406 12.617188 12.140625 12.8125 12.382812 12.8125 Z M 13.699219 12.8125 "/>
<path style=" stroke:none;fill-rule:nonzero;fill:rgb(255%,255%,255%);fill-opacity:1;" d="M 17.617188 11.933594 L 16.300781 11.933594 C 16.058594 11.933594 15.859375 12.128906 15.859375 12.375 C 15.859375 12.617188 16.058594 12.8125 16.300781 12.8125 L 17.617188 12.8125 C 17.859375 12.8125 18.058594 12.617188 18.058594 12.375 C 18.058594 12.128906 17.859375 11.933594 17.617188 11.933594 Z M 17.617188 11.933594 "/>
</g>
</svg>
