<svg xmlns="http://www.w3.org/2000/svg" viewBox="0 0 266.4 21.35"><defs><style>.cls-1{fill:#f4ca4a;}</style></defs><title>Asset 1</title><g id="Layer_2" data-name="Layer 2"><g id="Layer_1-2" data-name="Layer 1"><path class="cls-1" d="M266.37,16.41c.1-.52-.07-1.68-.44-1.42l-.13,2Z"/><path class="cls-1" d="M263.5,12.93a7.85,7.85,0,0,0-.38,4.51c.32-1.93.48-1.15.81-3.45.37-.25.72.59.71,1.33.1-.52.63.39.75-.87-.62-1.5-1.25-1.51-1.83-.2A3.31,3.31,0,0,1,263.5,12.93Z"/><path class="cls-1" d="M225.78,11l.24.23A.44.44,0,0,0,225.78,11Z"/><path class="cls-1" d="M202.49,9.5a.43.43,0,0,0,.27-.42C202.59,9.2,202.46,9.32,202.49,9.5Z"/><path class="cls-1" d="M198.57,7.2a1.5,1.5,0,0,0,.23.15C198.71,7.16,198.63,7.06,198.57,7.2Z"/><path class="cls-1" d="M225.78,11l-.62-.63C225.11,11,225.47,10.8,225.78,11Z"/><path class="cls-1" d="M258.57,18a1.15,1.15,0,0,0,.31-.54,1.66,1.66,0,0,1-.31.23Z"/><path class="cls-1" d="M236,9.29h.19c0-.23.1-.5.14-.81Z"/><path class="cls-1" d="M243.86,8.84c-.18-.07-.2,1.61-.25,2.35.08-.69.21-1,.36-1.16A10.47,10.47,0,0,0,243.86,8.84Z"/><path class="cls-1" d="M256.42,11.32l.21-.25C256.58,11.15,256.48,11.22,256.42,11.32Z"/><path class="cls-1" d="M230.4,9a4.64,4.64,0,0,0-.08-.6A2.35,2.35,0,0,0,230.4,9Z"/><path class="cls-1" d="M9.06,15.56c0-.12,0-.2,0-.3C9,15.42,9,15.54,9.06,15.56Z"/><path class="cls-1" d="M.15,6.93l.12-.08c0-.32,0-.64.06-.95Z"/><path class="cls-1" d="M191.34,4.84l0,0C191.57,4.69,191.46,4.72,191.34,4.84Z"/><path class="cls-1" d="M124.28,4.09c.72,1.53-1.29,1.9-.2,3.6C124,7,125.2,5.1,124.28,4.09Z"/><path class="cls-1" d="M258.35,17.83a.88.88,0,0,1-.32,0C258.18,17.91,258.28,17.9,258.35,17.83Z"/><path class="cls-1" d="M124.08,7.69v0l.12.16Z"/><path class="cls-1" d="M174.49,5.35a4.31,4.31,0,0,0,.15.75A2.29,2.29,0,0,0,174.49,5.35Z"/><path class="cls-1" d="M187,8.13l-.31-.24A.6.6,0,0,0,187,8.13Z"/><path class="cls-1" d="M167.92,7.54c-.17-.13-.22-.37-.46-.15a.86.86,0,0,0,.07.21C167.62,7.37,167.73,7.27,167.92,7.54Z"/><path class="cls-1" d="M161.14,7.35c0,.13.08.23.12.34l.22-.08Z"/><path class="cls-1" d="M29.67,15.36a9.4,9.4,0,0,1-.27-1.53C29.47,15,28.46,15.43,29.67,15.36Z"/><path class="cls-1" d="M258.51,17.09c0,.43-.06.64-.16.74a.88.88,0,0,0,.22-.1A1.74,1.74,0,0,0,258.51,17.09Z"/><path class="cls-1" d="M167.24,20.83l-1.06-.28A2.29,2.29,0,0,0,167.24,20.83Z"/><path class="cls-1" d="M78.27,16.57l-.26.19C78.11,16.8,78.2,16.76,78.27,16.57Z"/><path class="cls-1" d="M163,20.7a3,3,0,0,0-.58-1.18,2.48,2.48,0,0,0-.13.43Z"/><path class="cls-1" d="M29.4,13.82h0Z"/><path class="cls-1" d="M22.19,17.61c1,.08.55-2.16.8-3.42,1.25-.59.52,1.65.9,2.79.78-.56,1.43-2.58,2-2.47a1.71,1.71,0,0,1,0,1c.86-1.74,2.4,0,3.41-2.2a2,2,0,0,1,.11.56,18.86,18.86,0,0,1-.06-3.05c.47,0,.9-1.37,1,.08-.28,0-.32.53-.47,1l.5-.61c.37,2.09-.68.7-.72,2.24,1-.65,2.1-2.34,2.81-1.73.08,2-1.71.63-.8,2.47l-1.09-.81c.75,3.24-.67-.24,0,3.22,1.45.63,1.67-1,3.11-.35.36-1.13-.06-1.68.31-2.8,2.13-2,1.48,5.17,3.09,2.5.43-1.35.66-3.92,1.71-2.52l-.44,2.29c1.41.27.91-3.29,2.35-1.69-.29.89-1.14.73-.93,1,.91,1.84.72-1.29,1.46-1.27l.09,2.05c1.52-.28,3.23-1.7,4.91-2-.11.6-.41,1.23,0,1.86,2.14-.95,4.49.39,6.49,1.66l.83-1.74c.18,0,.32.81.11,1.14.77.69.07-1.11.48-1.79.45-.11.56,1,.26,1.54,1.44-1.45,4.08-3.09,5.5-1.16l-.3.51c1.13.75,1.4-3.57,2.42-1.89l-.22.3c2.47.84,5.28-.69,7.1,2,.44-2.52,2.43,1.21,2.7-2.32,1.37,1.79.94,2.41,2.91,3.65.53.18.86-2.19,1.54-2.54l0,1.85L77,15l.42,2.23.63-.46a1.78,1.78,0,0,1-.45-1.38c1-.8,2.33,1.36,2.33,2.31l2.34-1.5c-.08.75-.47,1-.79,1.46,1.28-1.86.17,2,1.34.25-.14-.42.12-1.1.15-1.47a2,2,0,0,0,2.76.74l-.22,1.27c1.69.37,3.6-.5,5.51-.42-.67-.62-.44-2.82.12-3l.17,2c.4-1.2-.56-.75.22-2.21.71.25.42,2.24,0,2.86l.89-.65a10.83,10.83,0,0,1-.26,1.63c.39-1.21,1.44,2,2-.09l0,.58c1.91.08,2.79-.57,4.35-.62.08-1.69.68-1.29,1.18-2.64,1.13.57,2.36,1.93,3.74,1.83,1-.81.32-1.42.79-2.41,0,1.54,1.4,1.44.66,2.52a8.46,8.46,0,0,0,4.24-1.43c-.2-.64-.45-.92-.3-1.44.38-.24.84.67.76,1.41l-.1.16c2.41-2.24,5.28,4.63,7.24,1.49l-.11.15,2-1.61c.88.29-.57,1.14.06,2.11,2.17-2.5,3.29.47,5.07-1.19,1.19,4.58,4.73-.17,6.44,2.77l-.07-1.07c.5-1,.55.63.88.88,0-.83-.48-1-.17-1.54,4-1.17,8.08,1.8,12.09,2.88,1.46.33,1-5.49,2.78-2.89l-.58,2c3.05-2.29,6.08.26,9.06-1.67-.19.45-.21,1.05-.49,1,.57,1.46,2.27.14,2.32-1,.45.15.07,1.07.33,1.68.6.86,1.61-1.8,1.89-.35,0,.23-.18.46-.3.57.42-.69,1.87.23,1.53-1.44,1.08.82,2.12-.68,3,.33.63-1.84,1.85.95,2.11-1.67-.16,2.71,1.85,2.24,2.58,1-.25.81.58.87.27,2,.8,0,1.53-.49,1.44-1.89,1.36,3.29,3-2.53,3.7,1.66a27.33,27.33,0,0,1,6.71-2.88c-.15,2.7-2.34.2-2.33,3,2-1.06,3.26-3.34,5.22-2.63.51.38-.32,1.16-.51,1.62,2-1.05,3.86.36,5.68-1.06a1.28,1.28,0,0,1-.4.72c.36-.07.81.42.81-.81l-.36.33c-.5-1.8,1.51-3.69,1.6-4.63-.7,3.51,1.73.94.65,5.36a2.18,2.18,0,0,0,.52-1.62c.33.25.43.73,0,1.66,1.28-.64.87-2,2-1.9a10,10,0,0,1-.39,1.52c.61-1.14,1.22-2.29,2.17-1.76-.07.36,0,.83-.26.81,1.66-.13,2.91-3,4.69-1.84-.6,2.57.6.87.63,3.11l1-.64-.37-1.1c.86.07,1.66-1.55,2.37-.8l-.66.91,1.62-.39-.89-.87c.9-1.13,0-2.83,1.1-2.18-.24.22.85,0,1.27,1.38h0c.44-.7.89-1.44,1.51-.87.15.72-.19,2.47-.09,3,.46-1.86,2-.47,2.58-2.46a5.43,5.43,0,0,0-.16,1.89l.38-1.52c.38.5.44.73.35,1.67,1.19.3-.32-2.85,1.07-1.6-.11.12-.06.35-.3.58,1.41.67,2.77-.92,4.06-.14.35,2.26-1.15.53-.74,2.44,1.89-.38,3.95-2.64,5.76-2.09l-.33-.26c.28-3.17,1.34,1.6,2.28.1a3.22,3.22,0,0,0-.25,1.41c1.24.52,2.56-.76,4.46-1.75l-.24.81c.74.74,1.94.43,2.74.8.24-.81.69-.68.42-1.87,2.46,4.66,4.66-2.51,6.87,1.35-.26,0-.62.72-.41.72l1.85-.77c-.16-1.38-.25-.83-.66-1.91.23-.82.74-1.47,1.2-1.48-.82.94,0,2.23.41,3-.07-.43.05-.9,0-1.33,1,2.45.12-2.79,1.47-1.15l-.06.73c.49-.38.93-1.35,1.46-1.15.25,1.6-.51.76-.52,2.08.75-.11,1.42-3.06,2.13-1.48-.31.45-.77.47-1.08.92.78,1.87.86,1.38,1.41,1.67l0,0,1.29.82-.33-.5c.83-4.21,1.89-.81,3.08-3.59-1.15,2.63-.16,1.51-.2,3.33.34.49.85,1,.72,1.56.56-1.49,1,1.12,1.82-1.06.06.59.64,0,.56,1.51.77-.49-.22-1-.18-1.74,1.12-2,2.92,2.32,4.54-.51,1.44-1.19,1.62-3.17,2.94-4.22.51.91-.27,2.15-.27,2.15.79.82,1.35.62,2-.08a2.6,2.6,0,0,0,.31,1.58c.56-.19.26-2.15,1.05-1.33a13.4,13.4,0,0,1-.43,2.38c.65-.58,1.24-1.71,1.9-2.27.25,1-.32,1.57-.53,2.24.76-.49,2-1,2.1-2.67l-.53-.54c.28-.1.23,1.37,0,1.68-.58,1.31-1-.5-1.07-1.08l.47-.41c-.72-3.39-1.94.67-2.95.53l.27-2.52-.9,2.13c-.25-.64-.47-2,0-2.42-.78-1.19-.58.92-1.26-.42a.45.45,0,0,1,0-.43l-.65.78c.11-.53-.21-1.76.24-1.42-1.31-1.38-1.91,2-2.46.1l.09-.16c-1.67.92-.07,1.84-1.27,4l-1.06-4.47-.1,1.84c-.18-.06-.53-.18-.5-.92-.61,1.28.15.79-.19,2-.92-1.64-2.33.86-2.62-2-.26,1.4.85,1,0,2-.36-3.13-1,.57-1.86-.84.19-1.63,1-.8.13-2.21-.39,2.75-1.53-.57-2.17,0,0,2.18-1.41.94-2.49,1.7.05-.73-2.1-1.16-3.14-1.94l0-.36c-.16,2.2-1.23,1.81-2,2.27a3.75,3.75,0,0,1,.55-2.43l-.72,0a1.75,1.75,0,0,1-.85,1.34L235.52,9c-1,.1-1.92,1.95-3.16.86-.07,1.54,1,4.28-.3,5.31-.05-.83-.11-2.25.23-2.59-.11.11-.39.69-.62.34l.51-1.4c-.56-.61-.28,1.17-.74,1,0-1.19-.34-.84-.28-1.78.12-.12.4.48.57,0A2.64,2.64,0,0,1,230.4,9c0,.68,0,1.6-.37,1.75-1,.09-.33-1.42-.9-2-.23.82-.84,0-.86,1.74-.28,0-.33-.84-.44-1.32-.5.79-2.33.23-1.77,2.11l.13.13s-.05,0-.08.07h0c-1.65,1.76-3.4-1-5-.27v-.59c-1,.67-2.16.37-2.87,1.64-.29,0-.66-1.09-.53-1.8-.75.44-.84,1.11-1.9.11.76-1-.24-.92.78-.74-1-.53-1.16-1.48-2.22.12.38-1.51-.69-1.92-1.16-1.47l.66,1.09a2,2,0,0,1-1.42-.06l.28-2c-1.92-2.46-3.63,4.07-5,0-.56,1.39,1,1,.54,2.63-.9-.29-1.78-3.17-2.06-3.18-1.21-1.14-1.23,2.88-2.51,2.1.15.71.26,2.62-.73,3.26-.9-.28-1-3-.45-3.57.22-.05.32.18.3.42a1,1,0,0,0,.35-1.33l-.13.71c-.43-.74-1.68-.69-1.36-1.85-.7.66-.32,1.16.17,1.54-1.13-1.06-1.81-.08-3-.8.18.39.33,1.23.14,1.22-1.73-.93-.81,1.33-2,1.61-.65-1.1.31-2.58-.91-1.71-.71-.75-.1-1.89.21-2.46-1.13,1.34-2-1-2.64-1.23l.6-.56a1.09,1.09,0,0,1-.93.3L193.55,6c-.33-.26-.62-.28-.59-.87-.38.92.2,2.38-.53,3.63-.43-.73-1.4.74-1.5-1.15,1.4.68-.1-1.91,1.11-2.18-.24.22-.52.21-.85,0a.57.57,0,0,1,.15-.5c-1.3-1.73-.68,2.12-2.09,2,.21-1.06-.27-2-.5-1.81.56,0,.22,1.79-.33,2.59-.87-.86-1,.59-1.46.48l.52.4c-.21,1.06-.66.91-1.3,1.22,0-.83.59-.55.38-.92-.76,1.85-1.52-2-2.53-.75-.43-.74,0-2-.37-2.51-1.13,1.35-1.14-1.49-2.32-.38.29,1.44.36,1.09-.49,2.46l1.91-1-1.27,2c.57,0,1.23-.86,1.56-.61-.61,1.15-.54.8-.3,2-.72-2.17-1.58,1.2-2.44-.28l.13-3.54c-1.31-1.62-2.46,1.75-4.19.8l.55.64c-.28,1.4-1.09.16-1.68.71a5,5,0,0,0-.48-2.36c0,.88-1.28-.12-1.51,2.24l-.74-1.58c-1.4-.69-1.72,3.32-3.07,2.88.45-1.28-.15-2.14.79-3-.45,0-.85-.25-.89.57-.24-.75-1.31,1.55-1.69.42-.21.51-.31,1.75-.82,1.64a1.83,1.83,0,0,1,0-.59c0,.59-.82.77-.41,2.1-1.3-3.74-3.93.15-5.06-3.06a12.56,12.56,0,0,1-3.12.77c.07-.35,0-.59.19-.46-1.22-1.14-.87,3.38-2.25,2.11-.67-1.94.78-1,.35-1.75-.08-3.91-1.72.48-2.61-1.83l.24-.22c-.69-1.35-1.82,1.42-3,1.11a2,2,0,0,0,0-.59,6,6,0,0,1-3.6,3.09c.4-1.51.55-.79.37-2.34-.52.2.08,2.49-1,2.89a7.81,7.81,0,0,1-1.07-3.25l1-.06c-.43-2.16-1.26,0-1.75-.35l.09-.93c-1.49.25-1.58,2.61-3.17,2.39l.14.72c-.94,2.3-.69-1.34-1.61.37L140.3,7a14.32,14.32,0,0,1-3.12,2.64c.63-1.74,1.87-2.6,2.64-3.62-.57,0-1.94.12-2.27,1.28.24-.23.54-.8.76-.43-.75,1.84-1.7,2.73-2.83,2.66.34-4.59-2.92-1.25-3.64-4.84-2.06,1.64-4-.84-6.3-.64.72,3.6-.69.08-.66,3.76-.55.21-.75.15-.79-.09L122.5,5.47c-.36-1.08.54-.79.52-1.62-1.19-.32-.46-1.57-1.22-2.57.13,1.32-.47,1.87-1.13,1.35l.91,1.72c-1.73,1.9-1.35-3.12-3.09-1.24L119.06,2c-.89.66-3.18-.12-4.11,2.81-.14-.43-.32-1.44.07-1.7-2-.5-4.68,3-6.22,1.14l.18-.89c-.39.25-.72,1.67-1.17.75,0-.37.18-.89,0-1-.21.3-1.07,1.54-1.56,1l.47-1c-2-1.24-3.16,2.36-4.86,2.93a4,4,0,0,0-2.25-4l0-.37c-2.33-.4-4,2.07-6.24,3-1.26-2.91-4.52-1.34-6.63-3A2.61,2.61,0,0,1,86.27,4c-.49-.55-1.45,1.79-1.3-.63l.18,0C84.84,1.08,83.78,1.68,83,1.59l-.23,3.16c-2-4.67-5.63,1.53-6.67-2.63-.54.77-1.17.75-1.7,1.52l.07-1.7a6.1,6.1,0,0,0-3.88-.35L71,.38c-1-.14-1.39,4.86-2.31,4.94l-.2-2.55c-1.74,0-3.42-2.29-5.2,0,0-.37.11-1.1.4-1.2-.82-.09-3.11-1.81-2.91,1.68,0-2.26-1.78-.27-2.75.7l.2-1.67c-.85,2.11-.9,2.7-2,3.25-.25-.22-.19-1.34.15-.9-.85-.9-.73,1.56-1.75.64L55,4.17c-.89-.15-.84.42-1.37,1.65-.58.66-1.68-.47-1.77-2-.15.91-.68,2.13-1.19,1.68a1.72,1.72,0,0,1,.25-1.09c-1.46-1.18-2.28,1.87-3.26.2a2.54,2.54,0,0,0-.15-1c1.19.08,2.15.2,2,.31.05-1.54-.9-1.83-.08-3.94-.8,1.14-2.2,3.62-3.11,2.87a3.6,3.6,0,0,1-.11-.54l.1-.17c-.21-.16-.41,0-.6.24-.29-.27-.47-.46-.76-.49-.07-1.28-1.08-.72-1.56-.8,0,1.69-.63,1.4-.08,2.81-.07-.12.1-.2.42-.26.07-.05.16-.07.21-.17l0,.15c.32,0,.73-.07,1.19-.08-.4.85-.82,1.55-1.32.6-.28,1.08-.58,2.19-.75,2.7-.58-2.37-1.81-3.68-1.94-5.13-1.49.9-3.47.52-4.48,3.66-.43.4-.45-.92-.59-1.42.25-.32.53-.26.67-.71-.85.79-2.47.24-2.73,2.45-1-1,.65-2-.8-1.7l.21-.67c-2.73-3.62-4.77,5.51-7.78.88A1.25,1.25,0,0,1,26,5C22.44,2.9,18.53,6.66,15.09,3.38c-1-.67-1.14.74-1.78,1.8l-.17-1.82L12,5.42C10.5,6.91,9.59.9,7.62,3.74L7.83,5c-.67-.25-2.16.66-2-.74-.07.22-.26,1.26-.5.62V3.89L3.62,5.46c-1.27-.72.31-3.75-1.56-4C1.35,1.81,0,4.17.23,4.81c.28.06.71.61.7,1.56l-.66.48C.08,9.64-.5,12.48,1,14.48L2.15,12.8l.31,1.37-.92.06c.48,1.29.85.17,1.24-.6a3.1,3.1,0,0,0,.42,1.51l1.15-2.63c.09,1.09-.55,2.15.15,2.77C5,14.06,4.09,12.82,5,12c.48,1.29.3,2.32,1,1.25a1.92,1.92,0,0,1-.34,1.48C6.14,13.92,7,14.44,7.35,13c.49,1.58,1.85-.36,1.72,2.29.19-.63,1-2,1.53-2.15-1,3.14,1.87.25,1.52,3.63.77-2.82,2.49-1.19,3.74-2.73-.08.22-.22.68-.32.53.66.25.84,1.12,1.25,1.67.16-2.35,1.23-2.86,1.84-4.29.76,2.29-.59,2.75-.39,4.93,0-1.9,1.49-1.86,1.26-3.45a5.47,5.47,0,0,1,.79,2.65c.2-2.93.61-.48,1.19-2.27.87,1.48.15,2.76,1.19,1.9C23.12,16.59,22.19,17.61,22.19,17.61Zm24.1-4.37v0l-.5.08Zm2,0a2.85,2.85,0,0,0-.87-.1c0-.58,0-1.18.25-1.14C47.55,12.43,48,12.77,48.3,13.28ZM44.4,1.47c.32-.23.42.1.45.45a1.86,1.86,0,0,0-.56.18l0,.21A5,5,0,0,1,44.4,1.47Z"/><path class="cls-1" d="M43.76,3.66s-.08.11-.14.12a2.74,2.74,0,0,0,.18.38l.13-.52Z"/><path class="cls-1" d="M226.06,11.22l0,0a1.1,1.1,0,0,1,.09.24A1.94,1.94,0,0,1,226.06,11.22Z"/><polygon class="cls-1" points="76 17.33 76.01 16.9 75.82 17.27 76 17.33"/><path class="cls-1" d="M237.19,17a1.11,1.11,0,0,0,.15.43A1.48,1.48,0,0,0,237.19,17Z"/><path class="cls-1" d="M242,17.24l.7.58A2.46,2.46,0,0,0,242,17.24Z"/><path class="cls-1" d="M245.75,18c0-.29,0-.52.05-.72h0Z"/><path class="cls-1" d="M186.87,19.41a.27.27,0,0,0-.14.07C186.39,19.8,186.62,19.68,186.87,19.41Z"/><path class="cls-1" d="M204.43,16a5.07,5.07,0,0,1-.58.79C204.15,16.87,204.39,16.91,204.43,16Z"/><path class="cls-1" d="M167.36,20.86v0a.48.48,0,0,1-.12,0Z"/><path class="cls-1" d="M203,16.69a.49.49,0,0,0,.81,0C203.59,16.62,203.3,16.44,203,16.69Z"/><path class="cls-1" d="M261.9,18l.18.05a1.12,1.12,0,0,1,0-.27Z"/><path class="cls-1" d="M262.09,17.78l.18-.21C262.18,17.58,262.1,17.59,262.09,17.78Z"/><path class="cls-1" d="M262.66,17.12l-.39.45C262.42,17.56,262.6,17.6,262.66,17.12Z"/><path class="cls-1" d="M256.93,17.51l0,.61A3.35,3.35,0,0,0,256.93,17.51Z"/><path class="cls-1" d="M255.44,17.76c.37.13,1,1.26,1.44.85l0-.49C256.72,19.05,255.73,16.72,255.44,17.76Z"/><path class="cls-1" d="M248.93,10.47l1.25.45c-.24-.65-.56-1.51,0-1.69C248.55,7.34,250.55,10.68,248.93,10.47Z"/><path class="cls-1" d="M245.08,9.65c.65-.31,0-.94,0-1.31C244.66,8.94,244.57,9.1,245.08,9.65Z"/><path class="cls-1" d="M217.42,9.8l.08-1.53C217,8.48,217.49,8.87,217.42,9.8Z"/><polygon class="cls-1" points="211.98 17.65 212.46 18.62 212.73 17.21 211.98 17.65"/><polygon class="cls-1" points="209.05 6.66 209.28 6.45 208.41 6.99 209.05 6.66"/><path class="cls-1" d="M162.39,5.89l.1,1.9C162.85,7.46,163,5.34,162.39,5.89Z"/><path class="cls-1" d="M142.17,7.22c-.19-1-.74-1.58-1.11-.66C141.5,6.7,141.93,7.45,142.17,7.22Z"/><polygon class="cls-1" points="81.8 2.34 82.22 1.72 81.44 2.22 81.8 2.34"/></g></g></svg>